<?xml version="1.0" standalone="no"?>
<!DOCTYPE svg PUBLIC "-//W3C//DTD SVG 20010904//EN"
 "http://www.w3.org/TR/2001/REC-SVG-20010904/DTD/svg10.dtd">
<svg version="1.0" xmlns="http://www.w3.org/2000/svg"
 width="512.000000pt" height="512.000000pt" viewBox="0 0 512.000000 512.000000"
 preserveAspectRatio="xMidYMid meet">

<g transform="translate(0.000000,512.000000) scale(0.100000,-0.100000)"
fill="#000000" stroke="none">
<path d="M1172 4259 c-158 -31 -281 -157 -312 -319 -6 -33 -10 -388 -10 -946
l0 -894 110 0 110 0 0 723 0 724 188 6 c103 4 773 7 1490 7 l1302 0 0 -730 0
-730 110 0 111 0 -3 928 -3 927 -23 58 c-44 108 -121 184 -233 230 l-54 22
-1370 2 c-753 0 -1389 -3 -1413 -8z m2771 -223 c39 -16 82 -61 96 -99 6 -16
11 -60 11 -98 l0 -69 -1490 0 -1490 0 0 65 c0 103 32 163 105 196 38 18 101
19 1388 19 1122 0 1353 -2 1380 -14z"/>
<path d="M3078 2843 l-88 -4 0 -104 0 -105 85 0 85 0 0 -320 0 -320 110 0 110
0 0 320 0 320 90 0 90 0 0 103 0 104 -137 6 c-75 4 -164 6 -197 5 -34 -1 -100
-4 -148 -5z"/>
<path d="M1611 2824 c-49 -34 -51 -56 -51 -459 l0 -375 110 0 110 0 2 161 3
162 77 -140 c43 -77 86 -147 97 -157 11 -10 38 -20 60 -23 36 -5 44 -2 76 30
l35 35 0 391 0 391 -105 0 -105 0 -2 -161 -3 -162 -70 129 c-91 168 -114 194
-169 194 -23 0 -52 -7 -65 -16z"/>
<path d="M2412 2815 c-29 -15 -64 -41 -77 -59 -52 -68 -55 -88 -55 -341 0
-259 3 -273 60 -339 58 -66 100 -81 220 -81 89 0 111 3 146 22 52 28 111 95
125 143 6 21 9 128 7 276 l-3 241 -30 49 c-19 30 -49 60 -79 79 -46 28 -58 30
-155 33 -98 3 -110 1 -159 -23z m207 -199 c8 -9 11 -73 9 -207 l-3 -193 -32
-10 c-21 -5 -45 -5 -65 0 l-33 10 -3 193 c-2 134 1 198 9 207 7 8 31 14 59 14
28 0 52 -6 59 -14z"/>
<path d="M1045 1701 c-83 -21 -155 -90 -180 -174 -13 -44 -15 -107 -13 -363
l3 -309 105 0 105 0 3 143 3 142 174 0 175 0 0 105 0 105 -175 0 -176 0 3 68
3 67 173 3 172 2 0 110 0 110 -172 -1 c-95 -1 -186 -4 -203 -8z"/>
<path d="M1740 1695 c-60 -19 -123 -74 -152 -133 -22 -45 -23 -56 -23 -282 0
-226 1 -237 23 -282 45 -91 142 -148 253 -148 127 0 212 46 261 139 l28 53 0
238 0 238 -28 53 c-16 30 -46 68 -69 85 -68 52 -196 69 -293 39z m174 -221 c9
-24 7 -377 -3 -392 -5 -9 -26 -12 -67 -10 l-59 3 -3 195 c-1 107 0 200 2 207
8 20 122 18 130 -3z"/>
<path d="M2280 1375 c0 -321 1 -337 21 -380 43 -91 140 -145 259 -145 119 0
216 54 259 145 20 43 21 59 21 380 l0 335 -105 0 -105 0 -2 -317 -3 -318 -65
0 -65 0 -3 318 -2 317 -105 0 -105 0 0 -335z"/>
<path d="M3063 1703 c-12 -2 -34 -18 -48 -34 l-25 -31 0 -394 0 -394 105 0
105 0 2 164 3 165 80 -146 c44 -80 91 -152 104 -161 42 -28 96 -21 134 16 l32
32 0 393 0 392 -107 3 -108 3 -2 -163 -3 -163 -80 144 c-44 79 -89 149 -100
157 -25 16 -63 23 -92 17z"/>
<path d="M3764 1696 c-65 -28 -64 -23 -64 -416 0 -394 -1 -388 66 -416 48 -20
254 -19 325 2 74 22 141 89 163 163 23 78 23 424 0 502 -22 74 -89 141 -163
163 -70 21 -281 22 -327 2z m281 -416 l0 -205 -67 -3 -68 -3 0 211 0 211 68
-3 67 -3 0 -205z"/>
</g>
</svg>
